<?xml version="1.0" encoding="UTF-8"?>
<!DOCTYPE svg PUBLIC "-//W3C//DTD SVG 1.1//EN" "http://www.w3.org/Graphics/SVG/1.1/DTD/svg11.dtd">
<!-- Created by Tomix -->
<svg version="1.2" xmlns="http://www.w3.org/2000/svg" viewBox="0 0 256 256" width="256" height="256">
 <title>latte-support-logo</title>
 <defs>
  <linearGradient id="gradient" x1="0.21" y1="0.91" x2="0.79" y2="0.09">
   <stop offset="0%" stop-color="#ff9019"/>
   <stop offset="16.33%" stop-color="#ff7400"/>
   <stop offset="49%" stop-color="#ff0039"/>
   <stop offset="66%" stop-color="#fa0096"/>
   <stop offset="100%" stop-color="#ea00fb"/>
  </linearGradient>
 </defs>
 <g id="latte">
  <path id="bg" style="fill: #ffffff" d="m34.4 0h187.2c19 0 34.4 15.4 34.4 34.4v187.2c0 19-15.4 34.4-34.4 34.4h-187.2c-19 0-34.4-15.4-34.4-34.4v-187.2c0-19 15.4-34.4 34.4-34.4z"/>
  <path id="logo" fill-rule="evenodd" style="fill: url(#gradient)" d="m232.3 139.3q-3.6 0-5.8 2.1-2.1 2.1-2.1 6.4v33q0 15.7-8.6 24.1-8.6 8.5-25.6 8.5h-10.5v-22.2h3.3q6.5 0 9.8-3.5 3.4-3.4 3.4-10v-29.1q0-8 2.2-12.6 2.3-4.5 6.8-6.6 1.5-0.7 3.3-1.3-1.8-0.5-3.3-1.2-4.5-2-6.8-6.6-2.2-4.5-2.2-12.5v-29.2q0-6.5-3.4-10-3.3-3.4-9.8-3.4h-3.3v-22.3h10.5q17 0 25.6 8.4 8.6 8.4 8.6 24.2v33q0 4.2 2.1 6.4 2.2 2.2 5.8 2.2h6v22.2zm-80.8-18.3q7.9 2.4 14.4 6.4 6.5 4 10.5 10.5 4.1 6.6 4.1 16.6 0 10.7-6 19.7-5.9 8.9-17.8 14.3-7.8 3.7-18.3 4.9v20.3h-18.1v-19.9q-11.7-0.7-22.6-3.9-13.9-4.1-22.4-10.6l9.9-22.3q8.1 5.9 19.3 9.6 7.8 2.6 15.8 3.4v-30.5q-6.7-1.6-13.5-3.8-7.8-2.5-14.4-6.5-6.5-4-10.5-10.6-4.1-6.5-4.1-16.7 0-11 5.9-20 5.8-9 17.7-14.4 8-3.6 18.9-4.8v-20.2h18.1v19.9q8.2 0.6 16.2 2.6 11.6 2.8 20.5 8.4l-9.1 22.4q-8.8-5-17.7-7.5-5-1.4-9.9-2v31.1q6.5 1.6 13.1 3.6zm-10.5 47.6q5.3-1.7 7.9-4.8 2.5-3.1 2.5-7.1 0-5.1-4-8.1-3.5-2.7-9-4.5v25.2q1.4-0.3 2.6-0.7zm-24-80.8q-5.4 2-7.7 5.2-2.4 3.2-2.4 7.4 0 4.9 4 7.9 3.6 2.8 9.4 4.5v-25.9q-1.8 0.4-3.3 0.9zm-54.1-19.2q-3.3 3.5-3.3 10v29.2q0 8-2.2 12.5-2.1 4.6-6.8 6.6-1.5 0.7-3.3 1.2 1.8 0.6 3.3 1.3 4.7 2.1 6.8 6.6 2.2 4.6 2.2 12.6v29.1q0 6.6 3.3 10 3.4 3.5 9.9 3.5h3.2v22.2h-10.4q-16.9 0-25.5-8.5-8.7-8.4-8.7-24.1v-33q0-4.3-2.2-6.4-2.2-2.1-5.8-2.1h-5.9v-22.2h5.9q3.6 0 5.8-2.2 2.2-2.2 2.2-6.4v-33q0-15.8 8.7-24.2 8.6-8.4 25.5-8.4h10.4v22.3h-3.2q-6.5 0-9.9 3.4z"/>
 </g>
</svg>