<?xml version="1.0" encoding="UTF-8"?>
<!-- Created by Tomix -->
<svg xmlns="http://www.w3.org/2000/svg" xmlns:xlink="http://www.w3.org/1999/xlink" width="40px" height="40px" viewBox="0 0 40 40" version="1.1">
<defs>
 <linearGradient id="linear0" gradientUnits="userSpaceOnUse" x1="0.21" y1="0.91" x2="0.79" y2="0.09" gradientTransform="matrix(34.5,0,0,26.75,2.734375,6.640625)">
  <stop offset="0" style="stop-color:rgb(100%,56.470588%,9.803922%);stop-opacity:1;"/>
  <stop offset="0.1633" style="stop-color:rgb(100%,45.490196%,0%);stop-opacity:1;"/>
  <stop offset="0.49" style="stop-color:rgb(100%,0%,22.352941%);stop-opacity:1;"/>
  <stop offset="0.66" style="stop-color:rgb(98.039216%,0%,58.823529%);stop-opacity:1;"/>
  <stop offset="1" style="stop-color:rgb(91.764706%,0%,98.431373%);stop-opacity:1;"/>
 </linearGradient>
</defs>
<g id="surface1">
 <path style=" stroke:none;fill-rule:nonzero;fill:rgb(100%,100%,100%);fill-opacity:1;" d="M 5.375 0 L 34.625 0 C 37.59375 0 40 2.40625 40 5.375 L 40 34.625 C 40 37.59375 37.59375 40 34.625 40 L 5.375 40 C 2.40625 40 0 37.59375 0 34.625 L 0 5.375 C 0 2.40625 2.40625 0 5.375 0 Z M 5.375 0 "/>
 <path style=" stroke:none;fill-rule:evenodd;fill:url(#linear0);" d="M 36.296875 21.765625 C 35.921875 21.765625 35.621094 21.875 35.390625 22.09375 C 35.171875 22.3125 35.0625 22.644531 35.0625 23.09375 L 35.0625 28.25 C 35.0625 29.886719 34.613281 31.140625 33.71875 32.015625 C 32.824219 32.902344 31.488281 33.34375 29.71875 33.34375 L 28.078125 33.34375 L 28.078125 29.875 L 28.59375 29.875 C 29.269531 29.875 29.78125 29.691406 30.125 29.328125 C 30.480469 28.972656 30.65625 28.453125 30.65625 27.765625 L 30.65625 23.21875 C 30.65625 22.386719 30.769531 21.730469 31 21.25 C 31.238281 20.78125 31.59375 20.4375 32.0625 20.21875 C 32.21875 20.144531 32.390625 20.078125 32.578125 20.015625 C 32.390625 19.964844 32.21875 19.902344 32.0625 19.828125 C 31.59375 19.621094 31.238281 19.277344 31 18.796875 C 30.769531 18.328125 30.65625 17.675781 30.65625 16.84375 L 30.65625 12.28125 C 30.65625 11.605469 30.480469 11.082031 30.125 10.71875 C 29.78125 10.363281 29.269531 10.1875 28.59375 10.1875 L 28.078125 10.1875 L 28.078125 6.703125 L 29.71875 6.703125 C 31.488281 6.703125 32.824219 7.140625 33.71875 8.015625 C 34.613281 8.890625 35.0625 10.152344 35.0625 11.796875 L 35.0625 16.953125 C 35.0625 17.390625 35.171875 17.722656 35.390625 17.953125 C 35.621094 18.183594 35.921875 18.296875 36.296875 18.296875 L 37.234375 18.296875 L 37.234375 21.765625 Z M 23.671875 18.90625 C 24.496094 19.15625 25.246094 19.488281 25.921875 19.90625 C 26.597656 20.324219 27.144531 20.871094 27.5625 21.546875 C 27.988281 22.234375 28.203125 23.097656 28.203125 24.140625 C 28.203125 25.253906 27.890625 26.28125 27.265625 27.21875 C 26.652344 28.144531 25.722656 28.890625 24.484375 29.453125 C 23.671875 29.839844 22.71875 30.09375 21.625 30.21875 L 21.625 33.390625 L 18.796875 33.390625 L 18.796875 30.28125 C 17.578125 30.207031 16.402344 30.003906 15.265625 29.671875 C 13.816406 29.246094 12.652344 28.691406 11.765625 28.015625 L 13.3125 24.53125 C 14.15625 25.144531 15.160156 25.644531 16.328125 26.03125 C 17.140625 26.300781 17.964844 26.480469 18.796875 26.5625 L 18.796875 21.796875 C 18.097656 21.628906 17.394531 21.433594 16.6875 21.203125 C 15.875 20.941406 15.125 20.605469 14.4375 20.1875 C 13.761719 19.769531 13.214844 19.21875 12.796875 18.53125 C 12.371094 17.855469 12.15625 16.984375 12.15625 15.921875 C 12.15625 14.777344 12.464844 13.734375 13.078125 12.796875 C 13.683594 11.859375 14.605469 11.109375 15.84375 10.546875 C 16.675781 10.171875 17.660156 9.921875 18.796875 9.796875 L 18.796875 6.640625 L 21.625 6.640625 L 21.625 9.75 C 22.480469 9.8125 23.324219 9.949219 24.15625 10.15625 C 25.363281 10.449219 26.433594 10.886719 27.359375 11.46875 L 25.9375 14.96875 C 25.019531 14.449219 24.097656 14.058594 23.171875 13.796875 C 22.652344 13.652344 22.136719 13.546875 21.625 13.484375 L 21.625 18.34375 C 22.300781 18.511719 22.984375 18.699219 23.671875 18.90625 Z M 22.03125 26.34375 C 22.582031 26.167969 22.996094 25.917969 23.265625 25.59375 C 23.527344 25.269531 23.65625 24.902344 23.65625 24.484375 C 23.65625 23.953125 23.449219 23.53125 23.03125 23.21875 C 22.667969 22.9375 22.199219 22.703125 21.625 22.515625 L 21.625 26.453125 C 21.769531 26.421875 21.90625 26.386719 22.03125 26.34375 Z M 18.28125 13.71875 C 17.71875 13.925781 17.316406 14.199219 17.078125 14.53125 C 16.828125 14.863281 16.703125 15.25 16.703125 15.6875 C 16.703125 16.199219 16.910156 16.609375 17.328125 16.921875 C 17.703125 17.214844 18.191406 17.449219 18.796875 17.625 L 18.796875 13.578125 C 18.609375 13.621094 18.4375 13.667969 18.28125 13.71875 Z M 9.828125 10.71875 C 9.484375 11.082031 9.3125 11.605469 9.3125 12.28125 L 9.3125 16.84375 C 9.3125 17.675781 9.199219 18.328125 8.96875 18.796875 C 8.75 19.277344 8.394531 19.621094 7.90625 19.828125 C 7.75 19.902344 7.578125 19.964844 7.390625 20.015625 C 7.578125 20.078125 7.75 20.144531 7.90625 20.21875 C 8.394531 20.4375 8.75 20.78125 8.96875 21.25 C 9.199219 21.730469 9.3125 22.386719 9.3125 23.21875 L 9.3125 27.765625 C 9.3125 28.453125 9.484375 28.972656 9.828125 29.328125 C 10.183594 29.691406 10.699219 29.875 11.375 29.875 L 11.875 29.875 L 11.875 33.34375 L 10.25 33.34375 C 8.488281 33.34375 7.160156 32.902344 6.265625 32.015625 C 5.359375 31.140625 4.90625 29.886719 4.90625 28.25 L 4.90625 23.09375 C 4.90625 22.644531 4.792969 22.3125 4.5625 22.09375 C 4.332031 21.875 4.03125 21.765625 3.65625 21.765625 L 2.734375 21.765625 L 2.734375 18.296875 L 3.65625 18.296875 C 4.03125 18.296875 4.332031 18.183594 4.5625 17.953125 C 4.792969 17.722656 4.90625 17.390625 4.90625 16.953125 L 4.90625 11.796875 C 4.90625 10.152344 5.359375 8.890625 6.265625 8.015625 C 7.160156 7.140625 8.488281 6.703125 10.25 6.703125 L 11.875 6.703125 L 11.875 10.1875 L 11.375 10.1875 C 10.699219 10.1875 10.183594 10.363281 9.828125 10.71875 Z M 9.828125 10.71875 "/>
</g>
</svg>
